<svg width="724" height="263" viewBox="0 0 724 263" fill="none" xmlns="http://www.w3.org/2000/svg">
<g filter="url(#filter0_d_1_26)">
<path d="M278.75 105.25C278.75 111 277.417 116.167 274.75 120.75C272.083 125.333 268.542 129.375 264.125 132.875C265.458 134.875 266.833 137.208 268.25 139.875C269.667 142.542 270.917 145.375 272 148.375C273.167 151.292 274.083 154.25 274.75 157.25C275.5 160.167 275.875 162.875 275.875 165.375C275.875 168.042 275.208 170.417 273.875 172.5C272.625 174.667 270.458 175.75 267.375 175.75C264.792 175.75 262.542 174.5 260.625 172C258.792 169.5 257.125 166.542 255.625 163.125C254.208 159.625 252.875 156.083 251.625 152.5C250.458 148.917 249.333 146.042 248.25 143.875C246.75 144.375 245.292 144.958 243.875 145.625C242.458 146.208 241 146.792 239.5 147.375C239.417 149.208 239.25 151.75 239 155C238.833 158.167 238.375 161.333 237.625 164.5C236.958 167.667 235.917 170.417 234.5 172.75C233.083 175.083 231.125 176.25 228.625 176.25C225.875 176.25 223.75 175.125 222.25 172.875C220.75 170.625 219.667 167.958 219 164.875C218.417 161.792 218.083 158.667 218 155.5C217.917 152.25 217.875 149.708 217.875 147.875C217.875 143.958 217.958 140.125 218.125 136.375C218.292 132.542 218.375 128.667 218.375 124.75C218.375 121.167 218.292 117.583 218.125 114C218.042 110.417 218 106.792 218 103.125C218 102.292 218 101.25 218 100C218 98.6667 218.042 97.3333 218.125 96C218.292 94.5833 218.458 93.25 218.625 92C218.792 90.75 219.083 89.75 219.5 89C220.333 87.25 222.208 85.5833 225.125 84C228.125 82.4167 231.375 81.0417 234.875 79.875C238.458 78.625 241.917 77.6667 245.25 77C248.667 76.25 251.208 75.875 252.875 75.875C257.125 75.875 260.875 76.6667 264.125 78.25C267.375 79.8333 270.083 82 272.25 84.75C274.417 87.4167 276.042 90.5417 277.125 94.125C278.208 97.625 278.75 101.333 278.75 105.25ZM255.625 107C255.625 104.833 255.125 103.208 254.125 102.125C253.125 100.958 251.5 100.375 249.25 100.375C247.583 100.375 245.875 100.667 244.125 101.25C242.458 101.833 240.917 102.5 239.5 103.25C239.833 109.833 239.958 116.375 239.875 122.875C241.625 122.292 243.417 121.542 245.25 120.625C247.083 119.708 248.75 118.583 250.25 117.25C251.833 115.917 253.125 114.417 254.125 112.75C255.125 111.083 255.625 109.167 255.625 107ZM335.5 148.75C335.5 151.583 334.583 154.375 332.75 157.125C331 159.792 328.75 162.208 326 164.375C323.333 166.458 320.458 168.167 317.375 169.5C314.292 170.75 311.458 171.375 308.875 171.375C304.458 171.375 300.5 170.292 297 168.125C293.583 165.875 290.708 163.042 288.375 159.625C286.042 156.208 284.25 152.458 283 148.375C281.833 144.208 281.25 140.167 281.25 136.25C281.25 132.083 281.833 127.625 283 122.875C284.167 118.125 285.917 113.75 288.25 109.75C290.667 105.75 293.667 102.417 297.25 99.75C300.917 97.0833 305.25 95.75 310.25 95.75C313.083 95.75 315.792 96.25 318.375 97.25C320.958 98.1667 323.208 99.5 325.125 101.25C327.042 103 328.583 105.083 329.75 107.5C330.917 109.917 331.5 112.625 331.5 115.625C331.5 119.542 330.667 123.208 329 126.625C327.333 130.042 325.125 133 322.375 135.5C319.625 138 316.458 140.042 312.875 141.625C309.292 143.125 305.625 143.958 301.875 144.125C302.208 146.542 303.167 148.292 304.75 149.375C306.417 150.458 308.375 151 310.625 151C312.292 151 313.917 150.583 315.5 149.75C317.083 148.917 318.625 148 320.125 147C321.625 145.917 323.083 144.958 324.5 144.125C326 143.292 327.5 142.875 329 142.875C330.667 142.875 332.167 143.417 333.5 144.5C334.833 145.583 335.5 147 335.5 148.75ZM315.25 118.125C315.25 117.042 314.958 115.917 314.375 114.75C313.792 113.583 312.875 113 311.625 113C309.792 113 308.25 113.5 307 114.5C305.75 115.417 304.708 116.625 303.875 118.125C303.042 119.542 302.375 121.083 301.875 122.75C301.458 124.417 301.208 125.958 301.125 127.375C302.292 127.125 303.667 126.792 305.25 126.375C306.917 125.958 308.458 125.417 309.875 124.75C311.375 124 312.625 123.083 313.625 122C314.708 120.917 315.25 119.625 315.25 118.125ZM377.125 102.25C377.125 104.667 376.292 106.458 374.625 107.625C373.042 108.792 371.25 109.917 369.25 111C367.25 112 365.417 113.208 363.75 114.625C362.167 116.042 361.375 118.167 361.375 121C361.375 122.5 361.708 123.792 362.375 124.875C363.125 125.958 364 126.958 365 127.875C366.083 128.708 367.25 129.583 368.5 130.5C369.75 131.417 370.875 132.458 371.875 133.625C372.958 134.792 373.833 136.208 374.5 137.875C375.25 139.542 375.625 141.583 375.625 144C375.625 147.5 374.708 150.958 372.875 154.375C371.125 157.708 368.833 160.708 366 163.375C363.25 165.958 360.125 168.042 356.625 169.625C353.125 171.208 349.667 172 346.25 172C344.833 172 343.417 171.875 342 171.625C340.583 171.458 339.292 171.083 338.125 170.5C337.042 169.917 336.125 169.125 335.375 168.125C334.625 167.042 334.25 165.667 334.25 164C334.25 161.667 334.708 159.875 335.625 158.625C336.542 157.292 337.708 156.25 339.125 155.5C340.542 154.75 342.042 154.167 343.625 153.75C345.292 153.333 346.833 152.833 348.25 152.25C349.667 151.583 350.833 150.75 351.75 149.75C352.667 148.75 353.125 147.333 353.125 145.5C353.125 143.75 352.417 141.958 351 140.125C349.667 138.208 348.167 136.208 346.5 134.125C344.833 131.958 343.292 129.667 341.875 127.25C340.542 124.833 339.875 122.167 339.875 119.25C339.875 115.667 340.583 112.375 342 109.375C343.5 106.292 345.458 103.625 347.875 101.375C350.375 99.125 353.208 97.375 356.375 96.125C359.542 94.7917 362.875 94.125 366.375 94.125C367.708 94.125 369 94.25 370.25 94.5C371.583 94.75 372.75 95.2083 373.75 95.875C374.75 96.4583 375.542 97.2917 376.125 98.375C376.792 99.375 377.125 100.667 377.125 102.25ZM436.875 135.25C436.875 139.833 436.417 144.375 435.5 148.875C434.583 153.375 433.042 157.417 430.875 161C428.708 164.5 425.792 167.333 422.125 169.5C418.542 171.667 414.042 172.75 408.625 172.75C403.292 172.75 398.833 171.708 395.25 169.625C391.667 167.458 388.792 164.625 386.625 161.125C384.542 157.625 383.042 153.667 382.125 149.25C381.292 144.833 380.875 140.333 380.875 135.75C380.875 130.75 381.458 125.792 382.625 120.875C382.875 119.542 383.333 117.708 384 115.375C384.75 112.958 385.667 110.625 386.75 108.375C387.917 106.042 389.208 104.042 390.625 102.375C392.125 100.708 393.75 99.875 395.5 99.875C397.167 99.875 398.5 100.333 399.5 101.25C400.5 102.167 401.292 103.333 401.875 104.75C402.458 106.083 402.833 107.542 403 109.125C403.167 110.625 403.25 112 403.25 113.25C403.25 115.167 403.083 117.042 402.75 118.875C402.5 120.708 402.208 122.542 401.875 124.375C401.542 126.875 401.208 129.375 400.875 131.875C400.625 134.375 400.5 136.875 400.5 139.375C400.5 140.625 400.542 142.042 400.625 143.625C400.792 145.125 401.125 146.583 401.625 148C402.125 149.417 402.833 150.625 403.75 151.625C404.667 152.542 405.958 153 407.625 153C409.792 153 411.5 152.417 412.75 151.25C414.083 150.083 415.042 148.625 415.625 146.875C416.292 145.125 416.708 143.25 416.875 141.25C417.042 139.25 417.125 137.417 417.125 135.75C417.125 132.083 416.875 128.5 416.375 125C415.875 121.417 415.417 117.792 415 114.125C414.917 113.708 414.875 113.125 414.875 112.375C414.875 111.125 415.083 109.875 415.5 108.625C415.917 107.375 416.5 106.25 417.25 105.25C418 104.25 418.917 103.458 420 102.875C421.083 102.208 422.292 101.875 423.625 101.875C425.458 101.875 427.083 102.542 428.5 103.875C429.917 105.125 431.083 106.792 432 108.875C433 110.875 433.792 113.167 434.375 115.75C435.042 118.25 435.542 120.75 435.875 123.25C436.292 125.667 436.542 127.958 436.625 130.125C436.792 132.292 436.875 134 436.875 135.25Z" fill="#FFEDE0"/>
<path d="M499.75 107.375C499.75 108.958 499.542 110.625 499.125 112.375C498.792 114.125 498.208 115.75 497.375 117.25C496.542 118.75 495.458 120 494.125 121C492.792 122 491.167 122.5 489.25 122.5C486.333 122.5 484.167 122 482.75 121C481.333 119.917 480.333 118.583 479.75 117C479.167 115.417 478.833 113.75 478.75 112C478.75 110.167 478.708 108.458 478.625 106.875C478.542 105.292 478.25 104 477.75 103C477.333 101.917 476.375 101.375 474.875 101.375C473.208 101.375 471.75 102 470.5 103.25C469.25 104.417 468.167 105.958 467.25 107.875C466.333 109.792 465.542 111.958 464.875 114.375C464.292 116.792 463.792 119.208 463.375 121.625C463.042 123.958 462.792 126.208 462.625 128.375C462.458 130.458 462.375 132.167 462.375 133.5C462.375 135.25 462.417 137.333 462.5 139.75C462.667 142.167 463.083 144.5 463.75 146.75C464.417 148.917 465.417 150.792 466.75 152.375C468.083 153.875 470 154.625 472.5 154.625C474.167 154.625 475.792 154.417 477.375 154C478.958 153.583 480.542 153.125 482.125 152.625C483.708 152.042 485.292 151.542 486.875 151.125C488.542 150.708 490.208 150.5 491.875 150.5C493.792 150.5 495.375 151.292 496.625 152.875C497.875 154.375 498.5 156.083 498.5 158C498.5 160.667 497.667 163.167 496 165.5C494.333 167.75 492.25 169.75 489.75 171.5C487.333 173.25 484.667 174.625 481.75 175.625C478.917 176.625 476.333 177.125 474 177.125C468 177.125 462.917 175.75 458.75 173C454.583 170.333 451.208 166.875 448.625 162.625C446.042 158.292 444.167 153.5 443 148.25C441.917 142.917 441.375 137.625 441.375 132.375C441.375 128.875 441.708 125.042 442.375 120.875C443.042 116.708 444.042 112.542 445.375 108.375C446.708 104.125 448.375 100.042 450.375 96.125C452.458 92.2083 454.875 88.75 457.625 85.75C460.375 82.75 463.458 80.3333 466.875 78.5C470.375 76.6667 474.208 75.75 478.375 75.75C482.458 75.75 485.875 76.7917 488.625 78.875C491.375 80.875 493.583 83.4583 495.25 86.625C496.917 89.7083 498.083 93.125 498.75 96.875C499.417 100.542 499.75 104.042 499.75 107.375ZM548.125 124.25C546.958 124.333 545.958 124.25 545.125 124C544.292 123.667 543.458 123.333 542.625 123C541.875 122.667 541.125 122.375 540.375 122.125C539.625 121.792 538.792 121.667 537.875 121.75C536.208 121.833 534.708 122.292 533.375 123.125C532.125 123.958 530.958 125 529.875 126.25C528.875 127.5 528 128.917 527.25 130.5C526.5 132 525.917 133.5 525.5 135C525.25 136 525.042 137.542 524.875 139.625C524.792 141.625 524.75 143.792 524.75 146.125C524.667 148.542 524.625 150.833 524.625 153C524.625 155.167 524.542 156.875 524.375 158.125C524.292 159.458 524.083 161.042 523.75 162.875C523.417 164.625 522.875 166.292 522.125 167.875C521.458 169.458 520.542 170.792 519.375 171.875C518.208 172.958 516.708 173.5 514.875 173.5C513.458 173.5 512.208 173.083 511.125 172.25C510.125 171.417 509.25 170.333 508.5 169C507.833 167.583 507.25 165.958 506.75 164.125C506.333 162.292 506 160.417 505.75 158.5C505.5 156.5 505.292 154.5 505.125 152.5C505.042 150.5 504.958 148.625 504.875 146.875C504.875 145.042 504.875 143.375 504.875 141.875C504.958 140.375 505 139.167 505 138.25C504.917 135.333 504.75 132.417 504.5 129.5C504.333 126.5 504.25 123.542 504.25 120.625C504.25 118.792 504.333 116.75 504.5 114.5C504.667 112.25 505.125 110.167 505.875 108.25C506.625 106.25 507.708 104.583 509.125 103.25C510.625 101.917 512.667 101.25 515.25 101.25C516.667 101.25 517.875 101.708 518.875 102.625C519.875 103.542 520.667 104.667 521.25 106C521.917 107.333 522.417 108.75 522.75 110.25C523.083 111.75 523.292 113.125 523.375 114.375C525.375 111.125 527.625 108.5 530.125 106.5C532.625 104.417 535.875 103.292 539.875 103.125C541.875 103.042 543.833 103.25 545.75 103.75C547.75 104.167 549.542 104.917 551.125 106C552.792 107 554.125 108.333 555.125 110C556.208 111.667 556.792 113.625 556.875 115.875C557.042 118.542 556.25 120.583 554.5 122C552.75 123.417 550.625 124.167 548.125 124.25ZM611.875 153.375C611.875 154.875 611.792 156.833 611.625 159.25C611.542 161.667 611.208 164.042 610.625 166.375C610.042 168.625 609.125 170.583 607.875 172.25C606.625 173.917 604.875 174.75 602.625 174.75C599.542 174.75 597.167 173.75 595.5 171.75C593.833 169.75 593.042 167.25 593.125 164.25C590.458 166.583 587.417 168.417 584 169.75C580.667 171.083 577.25 171.75 573.75 171.75C571.333 171.75 569.042 171.167 566.875 170C564.708 168.833 562.792 167.333 561.125 165.5C559.458 163.667 558.125 161.625 557.125 159.375C556.125 157.042 555.625 154.75 555.625 152.5C555.625 148.5 556.833 145 559.25 142C561.75 139 564.792 136.458 568.375 134.375C571.958 132.208 575.75 130.5 579.75 129.25C583.833 128 587.458 127.167 590.625 126.75C590.625 126.333 590.625 125.958 590.625 125.625C590.708 125.292 590.75 124.917 590.75 124.5C590.75 121.917 590.042 119.833 588.625 118.25C587.208 116.667 585.208 115.875 582.625 115.875C580.542 115.875 578.75 116.25 577.25 117C575.75 117.667 574.333 118.458 573 119.375C571.667 120.208 570.333 121 569 121.75C567.667 122.417 566.167 122.75 564.5 122.75C562.667 122.75 561.083 122.167 559.75 121C558.5 119.833 557.875 118.333 557.875 116.5C557.875 113.75 558.667 111.25 560.25 109C561.917 106.75 563.958 104.875 566.375 103.375C568.875 101.792 571.542 100.583 574.375 99.75C577.292 98.8333 579.958 98.375 582.375 98.375C584.625 98.375 586.875 98.6667 589.125 99.25C591.375 99.75 593.5 100.583 595.5 101.75C597.5 102.833 599.292 104.208 600.875 105.875C602.542 107.458 603.875 109.333 604.875 111.5C606.375 114.583 607.583 117.875 608.5 121.375C609.417 124.792 610.125 128.333 610.625 132C611.125 135.583 611.458 139.208 611.625 142.875C611.792 146.458 611.875 149.958 611.875 153.375ZM591.875 149.375L591.5 140.875C591.333 140.875 591.167 140.875 591 140.875C590.833 140.792 590.667 140.75 590.5 140.75C589.417 140.75 588.042 141.042 586.375 141.625C584.792 142.125 583.25 142.875 581.75 143.875C580.25 144.792 578.958 145.833 577.875 147C576.875 148.167 576.375 149.375 576.375 150.625C576.375 151.792 576.792 152.583 577.625 153C578.458 153.417 579.417 153.625 580.5 153.625C582.333 153.625 584.292 153.167 586.375 152.25C588.458 151.25 590.292 150.292 591.875 149.375ZM671.75 96.25C671.75 97.8333 671.583 99.375 671.25 100.875C671 102.292 670.5 103.542 669.75 104.625C669 105.708 668 106.583 666.75 107.25C665.5 107.833 663.958 108.125 662.125 108.125C660.042 108.125 658.5 107.708 657.5 106.875C656.5 106.042 655.792 105.042 655.375 103.875C655.042 102.625 654.875 101.292 654.875 99.875C654.875 98.4583 654.792 97.1667 654.625 96C654.542 94.75 654.25 93.7083 653.75 92.875C653.25 92.0417 652.333 91.625 651 91.625C649.75 91.625 648.708 92.5833 647.875 94.5C647.125 96.4167 646.5 98.625 646 101.125C645.5 103.625 645.167 106.083 645 108.5C644.833 110.833 644.75 112.417 644.75 113.25C645.833 113.083 646.875 112.958 647.875 112.875C648.875 112.708 649.958 112.625 651.125 112.625C652.292 112.625 653.5 112.75 654.75 113C656 113.25 657.167 113.667 658.25 114.25C659.333 114.75 660.208 115.5 660.875 116.5C661.542 117.417 661.875 118.583 661.875 120C661.875 121.5 661.208 122.833 659.875 124C658.625 125.167 657.083 126.167 655.25 127C653.5 127.75 651.708 128.375 649.875 128.875C648.042 129.375 646.583 129.708 645.5 129.875C645.75 135.625 645.875 141.417 645.875 147.25C645.875 152.75 645.75 158.167 645.5 163.5C645.333 166.083 644.417 168.208 642.75 169.875C641.167 171.542 639.083 172.375 636.5 172.375C635.083 172.375 633.875 172.083 632.875 171.5C631.875 171 631.042 170.292 630.375 169.375C629.708 168.458 629.167 167.417 628.75 166.25C628.417 165.083 628.208 163.875 628.125 162.625C627.708 157.625 627.375 152.625 627.125 147.625C626.875 142.542 626.792 137.458 626.875 132.375C626.292 132.458 625.708 132.5 625.125 132.5C624.625 132.5 624.083 132.5 623.5 132.5C622.5 132.5 621.292 132.375 619.875 132.125C618.458 131.875 617.083 131.458 615.75 130.875C614.5 130.208 613.417 129.417 612.5 128.5C611.583 127.583 611.125 126.417 611.125 125C611.125 123.167 611.75 121.625 613 120.375C614.167 119.125 615.583 118.125 617.25 117.375C619 116.542 620.792 115.958 622.625 115.625C624.542 115.292 626.208 115.042 627.625 114.875V112.875C627.625 108.792 628 104.417 628.75 99.75C629.5 95.0833 630.833 90.75 632.75 86.75C634.667 82.75 637.292 79.4583 640.625 76.875C643.958 74.2083 648.208 72.875 653.375 72.875C656.625 72.875 659.417 73.5833 661.75 75C664.083 76.3333 666 78.125 667.5 80.375C669 82.5417 670.083 85.0417 670.75 87.875C671.417 90.625 671.75 93.4167 671.75 96.25ZM696.25 175.5C690.333 175.5 685.708 174.708 682.375 173.125C679.125 171.625 676.667 169.458 675 166.625C673.417 163.792 672.458 160.375 672.125 156.375C671.792 152.375 671.625 147.917 671.625 143C671.625 139.083 671.75 135.167 672 131.25C672.25 127.25 672.625 123 673.125 118.5C671.958 118.5 671.042 118.542 670.375 118.625C669.708 118.625 669.167 118.625 668.75 118.625C666.083 118.625 663.792 118.042 661.875 116.875C659.875 115.708 658.875 113.917 658.875 111.5C658.875 110 659.458 108.667 660.625 107.5C661.708 106.333 663.125 105.333 664.875 104.5C666.625 103.667 668.5 103 670.5 102.5C672.583 102 674.542 101.667 676.375 101.5C676.375 99.1667 676.542 96.5833 676.875 93.75C677.208 90.9167 677.792 88.2917 678.625 85.875C679.542 83.375 680.75 81.2917 682.25 79.625C683.75 77.9583 685.667 77.125 688 77.125C689.333 77.125 690.5 77.5417 691.5 78.375C692.583 79.125 693.458 80.125 694.125 81.375C694.792 82.5417 695.292 83.875 695.625 85.375C695.958 86.875 696.125 88.3333 696.125 89.75C696.125 91.4167 696 93.125 695.75 94.875C695.5 96.625 695.042 98.7917 694.375 101.375C695.792 101.208 696.75 101.125 697.25 101.125C697.75 101.042 698.208 101 698.625 101C700.042 101 701.5 101.125 703 101.375C704.583 101.625 706 102.042 707.25 102.625C708.583 103.208 709.667 104 710.5 105C711.333 105.917 711.75 107.042 711.75 108.375C711.75 109.875 711.125 111.208 709.875 112.375C708.708 113.542 707.208 114.542 705.375 115.375C703.542 116.208 701.583 116.875 699.5 117.375C697.417 117.792 695.458 118.083 693.625 118.25C693.125 121.667 692.75 124.833 692.5 127.75C692.333 130.583 692.125 133.458 691.875 136.375C691.708 137.792 691.542 139.25 691.375 140.75C691.292 142.167 691.25 143.625 691.25 145.125C691.25 146.208 691.292 147.5 691.375 149C691.458 150.417 691.75 151.792 692.25 153.125C692.75 154.458 693.542 155.625 694.625 156.625C695.708 157.542 697.208 158 699.125 158C700.292 158 701.5 157.917 702.75 157.75C704 157.5 705.25 157.375 706.5 157.375C708.667 157.375 710.208 158.125 711.125 159.625C712.125 161.125 712.625 163.042 712.625 165.375C712.625 167.125 712.083 168.667 711 170C710 171.25 708.708 172.25 707.125 173C705.542 173.833 703.75 174.458 701.75 174.875C699.833 175.292 698 175.5 696.25 175.5Z" fill="#30B4FF"/>
</g>
<path d="M182.674 65.2056C191.515 65.2027 198.682 72.3702 198.679 81.2108L198.661 139.558C198.656 153.81 181.424 160.944 171.347 150.866L113.019 92.5383C102.941 82.4606 110.075 65.2292 124.327 65.2246L182.674 65.2056Z" fill="#126CBE"/>
<path d="M92.0047 186.176C83.1118 186.216 75.8927 178.997 75.9327 170.104L76.2817 92.6427C76.3457 78.4231 93.5403 71.3461 103.595 81.401L180.707 158.513C190.762 168.568 183.685 185.763 169.466 185.827L92.0047 186.176Z" fill="#FFEDE0"/>
<g filter="url(#filter1_d_1_26)">
<path d="M105.359 174.531C96.5186 174.534 89.3511 167.367 89.354 158.526L89.373 100.179C89.3776 85.9269 106.609 78.7927 116.687 88.8703L175.015 147.198C185.092 157.276 177.958 174.507 163.706 174.512L105.359 174.531Z" fill="#72AAFF"/>
</g>
<g filter="url(#filter2_d_1_26)">
<path d="M169.824 77.2105C178.717 77.1704 185.936 84.3896 185.896 93.2824L185.547 170.743C185.483 184.963 168.288 192.04 158.233 181.985L81.121 104.873C71.0661 94.8181 78.1431 77.6235 92.3627 77.5594L169.824 77.2105Z" fill="#30B4FF"/>
</g>
<g filter="url(#filter3_d_1_26)">
<circle cx="145.567" cy="109.554" r="9.63513" fill="#72AAFF"/>
</g>
<g filter="url(#filter4_d_1_26)">
<path d="M130.905 131.703C130.905 126.18 135.382 121.703 140.905 121.703H150.229C155.752 121.703 160.229 126.18 160.229 131.703V141.811H130.905V131.703Z" fill="#72AAFF"/>
</g>
<g filter="url(#filter5_d_1_26)">
<circle cx="145.148" cy="115" r="28.5" stroke="#126CBE" stroke-width="5" shape-rendering="crispEdges"/>
</g>
<defs>
<filter id="filter0_d_1_26" x="212.875" y="67.875" width="510.75" height="120.25" filterUnits="userSpaceOnUse" color-interpolation-filters="sRGB">
<feFlood flood-opacity="0" result="BackgroundImageFix"/>
<feColorMatrix in="SourceAlpha" type="matrix" values="0 0 0 0 0 0 0 0 0 0 0 0 0 0 0 0 0 0 127 0" result="hardAlpha"/>
<feOffset dx="3" dy="3"/>
<feGaussianBlur stdDeviation="4"/>
<feComposite in2="hardAlpha" operator="out"/>
<feColorMatrix type="matrix" values="0 0 0 0 0 0 0 0 0 0 0 0 0 0 0 0 0 0 0.25 0"/>
<feBlend mode="normal" in2="BackgroundImageFix" result="effect1_dropShadow_1_26"/>
<feBlend mode="normal" in="SourceGraphic" in2="effect1_dropShadow_1_26" result="shape"/>
</filter>
<filter id="filter1_d_1_26" x="85.354" y="84.152" width="98.3791" height="98.3791" filterUnits="userSpaceOnUse" color-interpolation-filters="sRGB">
<feFlood flood-opacity="0" result="BackgroundImageFix"/>
<feColorMatrix in="SourceAlpha" type="matrix" values="0 0 0 0 0 0 0 0 0 0 0 0 0 0 0 0 0 0 127 0" result="hardAlpha"/>
<feOffset dy="4"/>
<feGaussianBlur stdDeviation="2"/>
<feComposite in2="hardAlpha" operator="out"/>
<feColorMatrix type="matrix" values="0 0 0 0 0 0 0 0 0 0 0 0 0 0 0 0 0 0 0.25 0"/>
<feBlend mode="normal" in2="BackgroundImageFix" result="effect1_dropShadow_1_26"/>
<feBlend mode="normal" in="SourceGraphic" in2="effect1_dropShadow_1_26" result="shape"/>
</filter>
<filter id="filter2_d_1_26" x="73.4032" y="74.2103" width="121.493" height="121.493" filterUnits="userSpaceOnUse" color-interpolation-filters="sRGB">
<feFlood flood-opacity="0" result="BackgroundImageFix"/>
<feColorMatrix in="SourceAlpha" type="matrix" values="0 0 0 0 0 0 0 0 0 0 0 0 0 0 0 0 0 0 127 0" result="hardAlpha"/>
<feOffset dx="3" dy="3"/>
<feGaussianBlur stdDeviation="3"/>
<feComposite in2="hardAlpha" operator="out"/>
<feColorMatrix type="matrix" values="0 0 0 0 0 0 0 0 0 0 0 0 0 0 0 0 0 0 0.33 0"/>
<feBlend mode="normal" in2="BackgroundImageFix" result="effect1_dropShadow_1_26"/>
<feBlend mode="normal" in="SourceGraphic" in2="effect1_dropShadow_1_26" result="shape"/>
</filter>
<filter id="filter3_d_1_26" x="132.932" y="96.9189" width="29.2703" height="29.2703" filterUnits="userSpaceOnUse" color-interpolation-filters="sRGB">
<feFlood flood-opacity="0" result="BackgroundImageFix"/>
<feColorMatrix in="SourceAlpha" type="matrix" values="0 0 0 0 0 0 0 0 0 0 0 0 0 0 0 0 0 0 127 0" result="hardAlpha"/>
<feOffset dx="2" dy="2"/>
<feGaussianBlur stdDeviation="2.5"/>
<feComposite in2="hardAlpha" operator="out"/>
<feColorMatrix type="matrix" values="0 0 0 0 0 0 0 0 0 0 0 0 0 0 0 0 0 0 0.33 0"/>
<feBlend mode="normal" in2="BackgroundImageFix" result="effect1_dropShadow_1_26"/>
<feBlend mode="normal" in="SourceGraphic" in2="effect1_dropShadow_1_26" result="shape"/>
</filter>
<filter id="filter4_d_1_26" x="127.905" y="118.703" width="39.3243" height="30.1081" filterUnits="userSpaceOnUse" color-interpolation-filters="sRGB">
<feFlood flood-opacity="0" result="BackgroundImageFix"/>
<feColorMatrix in="SourceAlpha" type="matrix" values="0 0 0 0 0 0 0 0 0 0 0 0 0 0 0 0 0 0 127 0" result="hardAlpha"/>
<feOffset dx="2" dy="2"/>
<feGaussianBlur stdDeviation="2.5"/>
<feComposite in2="hardAlpha" operator="out"/>
<feColorMatrix type="matrix" values="0 0 0 0 0 0 0 0 0 0 0 0 0 0 0 0 0 0 0.33 0"/>
<feBlend mode="normal" in2="BackgroundImageFix" result="effect1_dropShadow_1_26"/>
<feBlend mode="normal" in="SourceGraphic" in2="effect1_dropShadow_1_26" result="shape"/>
</filter>
<filter id="filter5_d_1_26" x="111.148" y="81" width="72" height="72" filterUnits="userSpaceOnUse" color-interpolation-filters="sRGB">
<feFlood flood-opacity="0" result="BackgroundImageFix"/>
<feColorMatrix in="SourceAlpha" type="matrix" values="0 0 0 0 0 0 0 0 0 0 0 0 0 0 0 0 0 0 127 0" result="hardAlpha"/>
<feOffset dx="2" dy="2"/>
<feGaussianBlur stdDeviation="2.5"/>
<feComposite in2="hardAlpha" operator="out"/>
<feColorMatrix type="matrix" values="0 0 0 0 0 0 0 0 0 0 0 0 0 0 0 0 0 0 0.33 0"/>
<feBlend mode="normal" in2="BackgroundImageFix" result="effect1_dropShadow_1_26"/>
<feBlend mode="normal" in="SourceGraphic" in2="effect1_dropShadow_1_26" result="shape"/>
</filter>
</defs>
</svg>
